HIERARCHY
ROOT Hips
{
	OFFSET -3.958830 18.904000 13.208200
	CHANNELS 6 Xposition Yposition Zposition Zrotation Yrotation Xrotation 
	JOINT LHipJoint
	{
		OFFSET 0.000000 0.000000 0.000000
		CHANNELS 3 Zrotation Yrotation Xrotation
		JOINT LeftUpLeg
		{
			OFFSET 1.800000 -1.400000 0.085000
			CHANNELS 3 Zrotation Yrotation Xrotation
			JOINT LeftLeg
			{
				OFFSET 2.215000 -6.000000 0.000000
				CHANNELS 3 Zrotation Yrotation Xrotation
				JOINT LeftFoot
				{
					OFFSET 2.500000 -6.900000 0.000000
					CHANNELS 3 Zrotation Yrotation Xrotation
					JOINT LeftToeBase
					{
						OFFSET 0.200000 -0.500000 1.950000
						CHANNELS 3 Zrotation Yrotation Xrotation
						End Site
						{
							OFFSET 0.000000 0.000000 0.000000
						}
					}
				}
			}
		}
	}
	JOINT RHipJoint
	{
		OFFSET 0.000000 0.000000 0.000000
		CHANNELS 3 Zrotation Yrotation Xrotation
		JOINT RightUpLeg
		{
			OFFSET -1.800000 -1.400000 0.085000
			CHANNELS 3 Zrotation Yrotation Xrotation
			JOINT RightLeg
			{
				OFFSET -2.215000 -6.000000 0.000000
				CHANNELS 3 Zrotation Yrotation Xrotation
				JOINT RightFoot
				{
					OFFSET -2.500000 -6.900000 0.000000
					CHANNELS 3 Zrotation Yrotation Xrotation
					JOINT RightToeBase
					{
						OFFSET -0.200000 -0.500000 1.950000
						CHANNELS 3 Zrotation Yrotation Xrotation
						End Site
						{
							OFFSET 0.000000 0.000000 0.000000
						}
					}
				}
			}
		}
	}
	JOINT LowerBack
	{
		OFFSET 0.000000 0.000000 0.000000
		CHANNELS 3 Zrotation Yrotation Xrotation
		JOINT Spine
		{
			OFFSET -0.087000 1.940000 -0.288900
			CHANNELS 3 Zrotation Yrotation Xrotation
			JOINT Spine1
			{
				OFFSET 0.000000 1.950000 0.060000
				CHANNELS 3 Zrotation Yrotation Xrotation
				JOINT Neck
				{
					OFFSET 0.000000 0.000000 0.000000
					CHANNELS 3 Zrotation Yrotation Xrotation
					JOINT Neck1
					{
						OFFSET 0.000000 1.600000 0.340000
						CHANNELS 3 Zrotation Yrotation Xrotation
						JOINT Head
						{
							OFFSET 0.000000 1.667000 -0.240000
							CHANNELS 3 Zrotation Yrotation Xrotation
							End Site
							{
								OFFSET 0.000000 0.000000 0.000000
							}
						}
					}
				}
				JOINT LeftShoulder
				{
					OFFSET 0.000000 0.000000 0.000000
					CHANNELS 3 Zrotation Yrotation Xrotation
					JOINT LeftArm
					{
						OFFSET 2.700000 1.550000 -0.730000
						CHANNELS 3 Zrotation Yrotation Xrotation
						JOINT LeftForeArm
						{
							OFFSET 5.450000 0.000000 0.000000
							CHANNELS 3 Zrotation Yrotation Xrotation
							JOINT LeftHand
							{
								OFFSET 3.450000 0.000000 0.000000
								CHANNELS 3 Zrotation Yrotation Xrotation
								JOINT LeftHandIndex1
								{
									OFFSET 0.750000 0.000000 0.000000
									CHANNELS 3 Zrotation Yrotation Xrotation
									End Site
									{
										OFFSET 0.000000 0.000000 0.000000
									}
								}
							}
						}
					}
				}
				JOINT RightShoulder
				{
					OFFSET 0.000000 0.000000 0.000000
					CHANNELS 3 Zrotation Yrotation Xrotation
					JOINT RightArm
					{
						OFFSET -2.700000 1.550000 -0.730000
						CHANNELS 3 Zrotation Yrotation Xrotation
						JOINT RightForeArm
						{
							OFFSET -5.450000 0.000000 0.000000
							CHANNELS 3 Zrotation Yrotation Xrotation
							JOINT RightHand
							{
								OFFSET -3.450000 0.000000 0.000000
								CHANNELS 3 Zrotation Yrotation Xrotation
								JOINT RightHandIndex1
								{
									OFFSET -0.750000 0.000000 0.000000
									CHANNELS 3 Zrotation Yrotation Xrotation
									End Site
									{
										OFFSET 0.000000 0.000000 0.000000
									}
								}
							}
						}
					}
				}
			}
		}
	}
}
MOTION
Frames: 6
Frame Time: 0.016667
0.144790 15.864980 -3.183440 -2.865872 15.277579 1.894128 -15.699065 10.799540 5.775958 -12.372318 -15.899690 -46.646074 21.936080 -3.102156 64.097394 1.159907 9.925468 0.949342 0.516680 0.413860 0.504070 18.340177 -7.698339 4.044490 -13.416059 12.288410 -37.278202 18.664632 -20.967100 59.642477 -2.014277 -10.561897 0.723935 0.112240 -0.500830 0.037850 -2.963650 -3.143043 -9.865717 12.878860 -3.459352 47.741148 -1.237377 3.901095 -7.595857 2.454199 -3.829871 -11.358073 -7.858741 -2.968801 33.567861 3.299240 -3.436780 -31.885310 -21.874620 -6.839454 6.417419 -41.946667 26.741690 -18.393777 -47.239080 -27.314066 4.264293 -3.014630 3.118203 0.686830 -0.499190 0.477320 -0.005690 16.201436 16.047954 5.420725 34.968557 4.417447 -11.368374 47.649128 44.756086 14.643548 2.411572 -1.468631 0.071270 0.074360 -0.212740 -0.214440 
0.149880 15.809270 -3.196260 -2.982290 15.406951 2.010262 -15.730572 10.724172 5.833698 -12.613819 -16.303656 -47.460768 22.785765 -3.650482 65.042490 1.220565 10.152831 0.882991 0.523020 0.424170 0.499280 18.343757 -7.484319 4.134222 -14.078557 12.729522 -38.142686 19.739056 -21.887403 60.308998 -2.099490 -10.840249 0.651366 0.114310 -0.500720 0.036290 -2.902236 -3.349351 -9.946831 12.931312 -3.637024 49.108893 -1.138007 4.002382 -8.392974 2.491569 -4.359180 -11.332370 -8.796550 -2.506199 33.480137 3.883500 -3.462880 -32.541590 -22.448616 -6.675810 6.262028 -42.417130 27.378280 -18.804102 -47.418190 -25.665240 3.347366 -3.012019 3.099129 0.694600 -0.510150 0.484000 -0.000920 16.762862 16.384580 5.451475 34.069681 4.141038 -11.275094 47.830313 43.516622 14.233213 2.412830 -1.457653 0.074780 0.081340 -0.213690 -0.207750 
0.170830 15.722210 -3.217410 -3.345516 15.192499 1.729069 -15.782365 10.665632 5.881613 -13.051906 -16.708933 -48.532782 24.510955 -4.724567 66.894096 1.338359 10.621753 0.744429 0.531900 0.435850 0.502340 18.338774 -7.140218 4.301659 -15.127775 13.754300 -39.345308 21.450434 -23.456455 61.749057 -2.264673 -11.337256 0.522582 0.112890 -0.516620 0.031150 -2.790358 -3.730384 -10.087890 13.371599 -4.107109 52.463550 -1.634929 4.386516 -10.058059 2.868267 -4.993537 -11.492400 -10.148669 -2.348695 34.483390 4.507400 -4.063980 -33.853850 -24.049914 -6.888855 6.032931 -43.185377 28.828603 -19.562323 -46.515435 -22.157040 1.292696 -2.994655 3.033372 0.723290 -0.540850 0.508590 -0.000650 17.659341 17.505572 5.737436 32.509024 3.607654 -11.203010 48.817893 41.240971 13.605231 2.413476 -1.429535 0.078720 0.097130 -0.214470 -0.203580 
0.169220 15.610300 -3.255740 -3.452184 16.159964 1.958873 -15.826343 10.365453 6.074492 -13.630887 -17.997101 -50.625566 25.923904 -5.836075 69.292514 1.458120 11.177726 0.578655 0.555320 0.471120 0.508010 18.374634 -6.754267 4.458029 -16.836635 14.306181 -41.213765 23.719980 -25.652531 62.977565 -2.452373 -11.927242 0.366962 0.133470 -0.521650 0.030780 -2.727073 -3.884022 -10.281651 13.812578 -4.660977 55.019689 -1.947698 4.349131 -10.443015 2.997689 -5.122108 -11.268435 -10.416094 -2.581716 34.864451 5.636450 -4.645140 -35.432960 -24.398242 -6.726820 5.723303 -44.163132 29.429452 -20.310773 -46.173494 -20.177633 0.099868 -2.990321 2.985828 0.746420 -0.560120 0.530690 0.003640 17.643413 17.586501 5.575110 31.909751 3.792460 -11.160491 49.879184 40.297128 13.495868 2.407422 -1.410740 0.081320 0.120930 -0.215690 -0.197460 
0.150040 15.522000 -3.309820 -3.330251 17.080284 2.217723 -15.859779 10.065679 6.268636 -13.805320 -19.306163 -52.805439 26.573753 -6.466923 71.500984 1.534643 11.649880 0.441241 0.570780 0.491260 0.516390 18.414869 -6.406891 4.599888 -18.592574 14.595199 -43.106902 25.868996 -27.634818 63.688084 -2.602748 -12.392200 0.240318 0.153840 -0.512560 0.029750 -2.685752 -3.995538 -10.461062 13.891823 -5.263490 57.421071 -2.207926 3.904398 -10.345336 3.144989 -5.545297 -10.960061 -11.327557 -2.554458 35.623735 6.418270 -5.348530 -36.779960 -24.895020 -6.717567 5.371291 -45.608610 29.226778 -20.942604 -44.919104 -19.700589 -0.369008 -2.993822 2.926032 0.771050 -0.573540 0.546140 0.003350 17.785538 17.848085 5.333637 31.197857 4.462596 -11.066862 51.006109 39.903001 13.695030 2.402702 -1.382251 0.071780 0.161440 -0.205810 -0.192650 
0.129120 15.459890 -3.353260 -3.170197 17.619862 2.013343 -15.881996 9.951576 6.371970 -13.603077 -20.011074 -53.988196 26.387221 -6.463023 73.005425 1.574067 11.894091 0.368180 0.594340 0.527100 0.504880 18.428539 -6.211612 4.655972 -19.383531 14.722814 -43.928056 26.786149 -28.613118 64.170231 -2.683464 -12.629177 0.176248 0.178160 -0.496570 0.030480 -2.647530 -4.172718 -10.547506 13.796796 -5.610857 59.793271 -1.901456 3.476513 -9.656832 3.202648 -6.688881 -10.727533 -13.852589 -1.855718 37.219579 7.553170 -6.468840 -37.252200 -25.177720 -6.523144 4.941736 -47.169455 28.238698 -21.368832 -44.362832 -21.506333 0.369090 -2.980786 2.915462 0.776390 -0.585310 0.555190 0.018230 18.077869 18.341280 5.256207 29.429337 4.912053 -10.968267 52.845665 40.409227 14.611797 2.398230 -1.382404 0.078430 0.193280 -0.201880 -0.168190 
